<?xml version="1.0"?>
<svg id="Layer_1" xmlns="http://www.w3.org/2000/svg" version="1.1" viewBox="0 0 512 118.49">
  
  <defs>
    
  </defs>
  <path class="st0" d="M494.23,14.62c0,2.37,0,4.73,0,7.1,0,.9-.02.91-.93.91-8.47,0-16.94,0-25.42,0-41.86,0-83.73,0-125.59,0-1.49,0-1.37.18-1.37-1.35,0-2.22.02-4.44.03-6.65,51.09,0,102.19,0,153.28,0Z"></path>
  <path d="M28.78,100.56c-.73-.14-1.46-.3-2.2-.41-4.29-.67-8.15-2.34-11.63-4.92-.4-.3-.44-.55-.16-.95.56-.77,1.1-1.56,1.61-2.36.24-.38.45-.37.79-.13,1.92,1.39,3.95,2.6,6.16,3.48,3.56,1.42,7.23,2.02,11.04,1.32,1.92-.35,3.71-1.05,5.15-2.43,2.97-2.84,2.27-7.08-1.44-8.85-1.38-.66-2.84-.98-4.34-1.11-2.57-.23-5.16-.35-7.73-.63-2.1-.22-4.16-.65-6.07-1.64-5.35-2.78-5.24-8.91-1.4-12.21,1.81-1.55,3.93-2.43,6.25-2.79,6.72-1.04,12.78.71,18.33,4.49.61.42.61.45.2,1.07-.49.73-1.03,1.43-1.5,2.17-.27.42-.48.32-.84.1-1.56-.95-3.08-2.01-4.74-2.76-3.52-1.6-7.22-2.15-11.06-1.36-1.23.26-2.38.73-3.41,1.46-2.64,1.86-2.45,5.06.39,6.6,1.63.89,3.42,1.14,5.24,1.3,2.99.26,6,.42,8.97.84,2.68.38,5.1,1.5,6.95,3.58,2.91,3.27,2.96,8.01.16,11.38-1.84,2.2-4.26,3.43-7,4.09-.8.19-1.62.3-2.43.46-.19.04-.37.13-.56.2h-4.73Z"></path>
  <path d="M286.04,100.56c-.24-.08-.47-.19-.72-.23-7.03-.96-12.45-6.12-13.72-13.08-.77-4.23-.35-8.3,1.68-12.13,2.03-3.82,5.14-6.43,9.28-7.68,4.61-1.4,9.15-1.14,13.47,1.07,4.19,2.15,6.88,5.58,8.1,10.12,1.13,4.19.91,8.33-.85,12.32-1.8,4.07-4.83,6.91-9.01,8.44-1.2.44-2.48.64-3.72.95-.19.05-.36.14-.55.21h-3.96ZM275.27,83.97c.07.55.13,1.48.3,2.4,1.12,6.22,5.98,10.37,12.25,10.43,4.43.04,8.03-1.66,10.56-5.36,1.98-2.89,2.57-6.15,2.21-9.6-.28-2.69-1.24-5.13-2.99-7.21-2.15-2.55-4.93-3.92-8.23-4.26-3.6-.37-6.86.54-9.62,2.9-3.14,2.69-4.39,6.26-4.49,10.7Z"></path>
  <path d="M183.38,100.56c-.22-.08-.43-.19-.66-.22-7.21-.99-12.67-6.31-13.82-13.5-.69-4.32-.18-8.46,2.07-12.27,2.55-4.32,6.36-6.86,11.3-7.68,3.58-.6,7.06-.24,10.38,1.26,2.65,1.2,4.79,3.02,6.46,5.4.29.41.3.68-.16.97-.77.5-1.5,1.05-2.25,1.59-.32.23-.53.26-.78-.16-4.2-6.89-14.56-7.58-19.87-1.63-2.82,3.16-3.74,6.95-3.27,11.1.36,3.18,1.61,5.99,4.02,8.15,3.38,3.04,7.39,3.83,11.75,2.87,3.1-.68,5.46-2.5,7.23-5.11.16-.23.27-.54.28-.81.03-1.25,0-2.49.01-3.74,0-.47-.2-.65-.66-.65-2.31,0-4.62,0-6.93-.01-.2,0-.4-.02-.6,0-.45.02-.63-.19-.62-.63.01-.77.02-1.54,0-2.31-.02-.54.24-.7.73-.69,1.61.01,3.23,0,4.84,0,2.15,0,4.29.02,6.44,0,.55,0,.75.2.74.74-.01,2.86.02,5.72-.03,8.58,0,.42-.26.87-.5,1.24-2.71,4.12-6.51,6.56-11.4,7.29-.24.04-.48.15-.71.23h-3.96Z"></path>
  <path d="M246.65,100.56c-.2-.07-.4-.19-.6-.22-5.69-.88-9.94-3.79-12.48-9-1.5-3.07-1.93-6.36-1.57-9.76.28-2.71,1.07-5.24,2.55-7.54,2.09-3.23,4.95-5.49,8.64-6.61,4.65-1.4,9.21-1.11,13.57,1.12,2.31,1.18,4.18,2.89,5.65,5.03.26.38.26.63-.15.9-.78.52-1.53,1.08-2.29,1.62-.33.24-.54.23-.78-.17-4.4-7.26-15.75-7.65-20.77-.5-2,2.85-2.7,6.06-2.41,9.5.26,3.08,1.34,5.82,3.49,8.07,2.5,2.62,5.63,3.83,9.24,3.79,4.71-.05,8.28-2.15,10.82-6.07.12-.18.26-.36.36-.55.32-.66.34-.75,1.1-.22.68.47,1.31,1.01,1.99,1.47.4.27.4.53.17.91-1.9,3.27-4.56,5.68-8.12,7-1.26.47-2.62.67-3.93,1.01-.21.05-.41.13-.62.2h-3.85Z"></path>
  <path class="st0" d="M417.57,39.19c25.07,0,50.14,0,75.2,0,1.65,0,1.44-.09,1.46,1.45.02,1.89,0,3.78,0,5.67,0,.77-.03.79-.81.83-.27.01-.55.01-.82.01-50.03,0-100.05,0-150.08,0-1.86,0-1.57.12-1.6-1.59-.02-1.72,0-3.45,0-5.17,0-1.19,0-1.19,1.18-1.19,3.92,0,7.85,0,11.77,0,21.24,0,42.47,0,63.71,0Z"></path>
  <path class="st0" d="M417.59,26.95c25.11,0,50.21,0,75.32,0,1.45,0,1.31-.13,1.32,1.29.01,1.87,0,3.74,0,5.61,0,1.02,0,1.03-1.05,1.03-3.98,0-7.96,0-11.94,0-46.25,0-92.5,0-138.75,0-1.75,0-1.56.19-1.58-1.55-.01-1.78,0-3.56,0-5.34,0-1.04.01-1.04,1.03-1.04,2.51,0,5.02,0,7.54,0,22.7,0,45.41,0,68.11,0Z"></path>
  <path d="M318.69,74.76c0,.61,0,1.23,0,1.84,0,7.24,0,14.49,0,21.73,0,1.52.04,1.32-1.35,1.34-.66.01-1.32-.01-1.98,0-.36,0-.55-.13-.54-.51,0-.29-.02-.59-.02-.88,0-9.83,0-19.66,0-29.49,0-1.73-.17-1.42,1.46-1.47.2,0,.4,0,.61,0,1.92.05,1.38-.31,2.51,1.38,3.21,4.82,6.4,9.66,9.59,14.49.75,1.13,1.49,2.26,2.25,3.39.35.52.46.52.81,0,3.38-5.08,6.76-10.17,10.14-15.25.78-1.18,1.57-2.34,2.34-3.53.21-.32.45-.49.85-.48.84.02,1.69.02,2.53,0,.37,0,.54.16.52.53,0,.26.01.51.01.77,0,9.92,0,19.84,0,29.76,0,1.42.12,1.27-1.27,1.29-.66.01-1.32-.02-1.98,0-.43.01-.6-.19-.59-.59,0-.31-.01-.62-.01-.94,0-7.21,0-14.41,0-21.62,0-.59-.04-1.18-.06-1.78-.07-.02-.14-.04-.21-.06-.31.43-.64.86-.94,1.3-3.69,5.49-7.37,10.99-11.06,16.49-.69,1.02-.7,1.02-1.39-.01-3.69-5.5-7.37-10.99-11.06-16.49-.29-.43-.61-.85-.92-1.27-.09.02-.18.04-.27.06Z"></path>
  <path d="M73.32,83.51c0-5.01,0-10.01,0-15.02,0-1.27-.1-1.16,1.17-1.16,4.36,0,8.73-.03,13.09.02,3.49.04,6.8.82,9.75,2.77,3.3,2.19,5.4,5.24,6.31,9.07.83,3.5.73,6.99-.46,10.41-1.42,4.05-4.16,6.88-8.08,8.58-2.32,1.01-4.78,1.44-7.29,1.47-4.57.05-9.13.03-13.7.02-.77,0-.8-.03-.8-.82,0-5.12,0-10.23,0-15.35h0ZM77.26,83.46c0,3.7,0,7.41,0,11.11,0,.33-.03.67.04.99.04.17.25.37.42.44.21.08.47.05.71.05,2.9,0,5.8.05,8.69-.02,1.44-.04,2.9-.19,4.3-.52,2.77-.65,5.08-2.1,6.64-4.54,2.11-3.28,2.51-6.88,1.71-10.62-1.19-5.62-5.49-8.87-10.83-9.24-3.65-.26-7.33-.1-10.99-.13,0,0-.11,0-.16,0-.33,0-.51.15-.5.5,0,.31-.02.62-.02.93,0,3.69,0,7.37,0,11.06Z"></path>
  <path d="M198,15.48c5.49.18,10.41,1.9,14.87,5.03.36.25.4.46.16.8-.53.74-1.08,1.48-1.57,2.26-.3.48-.54.39-.96.13-1.41-.89-2.8-1.83-4.29-2.55-3.29-1.59-6.79-2.19-10.44-1.71-1.49.2-2.9.64-4.16,1.48-1.3.86-2.2,1.99-2.12,3.62.09,1.64,1.18,2.62,2.56,3.31,1.45.73,3.03.98,4.62,1.12,2.65.23,5.31.35,7.95.63,2.92.31,5.63,1.23,7.81,3.31,3.8,3.63,3.52,9.66-.58,13.12-2.25,1.9-4.89,2.84-7.76,3.24-3.93.54-7.8.16-11.58-.97-2.91-.87-5.56-2.26-7.99-4.09-.38-.28-.43-.53-.16-.91.53-.75,1.06-1.5,1.53-2.28.31-.51.58-.41,1.01-.15,1.64,1,3.25,2.07,4.97,2.91,2.99,1.47,6.18,2.2,9.52,2.08,2.55-.09,4.99-.61,7.09-2.18,1.55-1.17,2.47-2.72,2.44-4.69-.04-2.29-1.35-3.75-3.33-4.71-1.41-.69-2.92-.97-4.46-1.11-2.56-.22-5.12-.35-7.67-.63-2.25-.24-4.44-.72-6.44-1.89-4.71-2.76-4.6-8.5-1.22-11.65,1.62-1.51,3.53-2.44,5.66-2.88,1.48-.3,3-.42,4.51-.62Z"></path>
  <path d="M455.61,91.24c0-.52,0-1.04,0-1.56,0-6.99,0-13.97,0-20.96,0-1.6-.16-1.36,1.38-1.39.57-.01,1.14,0,1.7,0,.83.01.83.02.85.87,0,.2,0,.4,0,.61,0,9.86,0,19.73,0,29.59,0,1.3,0,1.27-1.28,1.3-.57.01-.91-.27-1.25-.65-3.1-3.57-6.21-7.13-9.32-10.7-3.41-3.91-6.81-7.83-10.22-11.73-.29-.33-.63-.61-1.02-.98-.03.27-.08.49-.08.71-.01,7.24,0,14.48-.03,21.73,0,1.83.26,1.57-1.61,1.6-.6,0-1.21-.01-1.81-.01-.34,0-.51-.15-.5-.5,0-.26-.01-.51-.01-.77,0-9.96,0-19.91,0-29.87,0-1.35-.13-1.15,1.22-1.23.62-.03,1.01.22,1.4.67,6.46,7.45,12.92,14.89,19.39,22.33.3.34.62.66.93.98.09-.02.17-.04.26-.06Z"></path>
  <path d="M151.22,24.59c-.04.34-.08.55-.08.76-.01,7.32-.01,14.63-.03,21.95,0,1.5.2,1.32-1.36,1.35-.68.01-1.36-.02-2.04,0-.36,0-.55-.13-.53-.51.01-.22,0-.44,0-.66,0-9.98,0-19.95,0-29.93,0-1.25,0-1.23,1.27-1.25.53,0,.89.18,1.23.57,3.56,4.12,7.13,8.23,10.7,12.34,3.1,3.57,6.22,7.13,9.33,10.69.12.13.25.24.48.47.05-.33.11-.53.11-.73.01-7.13.02-14.27.03-21.4,0-.46.02-.92.03-1.37,0-.36.16-.54.53-.54.95,0,1.91,0,2.86,0,.31,0,.48.15.48.47,0,.27.02.55.02.82,0,9.94,0,19.88,0,29.82,0,1.35.11,1.18-1.21,1.24-.56.03-.92-.21-1.26-.61-4.54-5.23-9.1-10.45-13.65-15.67-2.12-2.43-4.25-4.86-6.37-7.28-.13-.14-.28-.27-.52-.5Z"></path>
  <path d="M154.35,91.25c.03-.22.09-.45.09-.67.01-5.23.02-10.45.03-15.68,0-2.2,0-4.4,0-6.6,0-.94.03-.96.94-.97.75,0,1.5.02,2.26,0,.51-.02.76.14.71.68-.02.2,0,.4,0,.6,0,9.92,0,19.84,0,29.76,0,1.35,0,1.33-1.36,1.33-.54,0-.83-.3-1.14-.65-2.84-3.26-5.68-6.53-8.52-9.79-3.67-4.22-7.34-8.43-11.01-12.65-.27-.31-.52-.65-.78-.97-.09.04-.17.09-.26.13-.03.53-.09,1.06-.09,1.59,0,4.79,0,9.57,0,14.36,0,2.35,0,4.69,0,7.04,0,.9-.02.91-.93.92-.7,0-1.39,0-2.09,0-.83,0-.84-.03-.87-.88,0-.27,0-.55,0-.83,0-9.76,0-19.51,0-29.27,0-1.57-.12-1.33,1.4-1.39.57-.02.87.31,1.18.67,2.11,2.42,4.21,4.84,6.31,7.26,4.36,5.03,8.71,10.06,13.07,15.09.29.33.6.63.9.95.05,0,.11-.02.16-.03Z"></path>
  <path d="M94.38,24.76c-.03.21-.09.41-.09.62-.01,5.24-.02,10.49-.03,15.73,0,2.27-.02,4.55,0,6.82,0,.51-.15.73-.69.71-.82-.03-1.65-.03-2.47,0-.54.02-.75-.17-.74-.73.02-2.49,0-4.99,0-7.48,0-7.61,0-15.22,0-22.83,0-1.34,0-1.32,1.32-1.33.48,0,.82.16,1.14.52,5.08,5.86,10.16,11.71,15.25,17.56,1.59,1.83,3.19,3.64,4.78,5.46.13.15.21.34.31.51.08-.05.15-.09.23-.14.03-.2.08-.4.08-.6.01-7.28.02-14.56.03-21.84,0-1.62-.13-1.44,1.44-1.46.64,0,1.28.01,1.93,0,.36,0,.54.16.54.53,0,.26.01.51.01.77,0,9.92,0,19.84,0,29.76,0,1.43.09,1.24-1.28,1.3-.52.02-.85-.21-1.17-.58-2.97-3.42-5.94-6.83-8.92-10.24-3.7-4.24-7.41-8.47-11.11-12.71-.13-.15-.2-.36-.29-.54-.1.06-.19.12-.29.18Z"></path>
  <path d="M54.49,32.5c0-4.99,0-9.98,0-14.96q0-1.24,1.23-1.24c7.65,0,15.29,0,22.94,0,1.27,0,1.21-.18,1.24,1.22.01.62-.02,1.25-.01,1.87,0,.36-.15.54-.52.54-.31,0-.62.01-.93.01-6.09,0-12.18,0-18.27,0-.4,0-.81.03-1.21.03-.37,0-.54.17-.54.54,0,.4-.02.81-.02,1.21,0,2.15,0,4.29,0,6.44,0,1.4,0,1.4,1.43,1.4,3.45,0,6.9,0,10.34,0,1.39,0,1.22-.14,1.25,1.24.01.57-.03,1.14,0,1.71.02.48-.18.66-.65.64-.31-.02-.62.02-.93.02-3.43,0-6.86,0-10.29,0-1.13,0-1.14.01-1.14,1.13,0,3.19,0,6.38,0,9.57,0,1.12.02,1.13,1.14,1.13,6.75,0,13.5,0,20.25,0,1.51,0,1.42-.15,1.45,1.43,0,.57-.02,1.14-.03,1.7,0,.34-.16.5-.51.49-.22,0-.44.01-.66.01-8.09,0-16.18,0-24.26,0-1.36,0-1.26.17-1.27-1.29,0-4.95,0-9.9,0-14.85Z"></path>
  <path d="M16,32.45c0-4.99,0-9.98,0-14.96,0-1.18,0-1.19,1.15-1.19,5.79,0,11.59-.02,17.38,0,2.09.01,4.13.32,6,1.35,2.12,1.17,3.46,2.93,3.91,5.3.46,2.39.26,4.73-.91,6.9-1.46,2.69-3.82,4.07-6.8,4.46-.72.09-1.46.1-2.2.11-4.4,0-8.8,0-13.2,0-1.59,0-1.38-.09-1.39,1.41-.02,3.78,0,7.56,0,11.33,0,.17,0,.33,0,.5-.01.96-.01.97-.98.98-.77,0-1.54-.02-2.31,0-.46.01-.69-.14-.64-.63.02-.22,0-.44,0-.66,0-4.97,0-9.94,0-14.91ZM28.17,20.02s0-.04,0-.06c-2.49,0-4.98.01-7.48,0-.57,0-.76.21-.75.78.02,2.95,0,5.9,0,8.85,0,1.17,0,1.18,1.18,1.18,4.45,0,8.91,0,13.36,0,.62,0,1.25-.06,1.86-.19,1.28-.27,2.5-.74,3.25-1.87,1.23-1.84,1.3-3.83.44-5.82-.82-1.89-2.46-2.73-4.38-2.82-2.49-.13-4.98-.03-7.47-.03Z"></path>
  <path d="M360.87,83.44c0-4.97,0-9.94,0-14.91,0-1.21,0-1.21,1.19-1.21,5.9,0,11.81,0,17.71.02,2,0,3.95.38,5.71,1.38,2.33,1.32,3.66,3.36,3.94,6.01.4,3.73-.58,6.96-3.81,9.19-1.69,1.16-3.62,1.54-5.64,1.53-4.6,0-9.2,0-13.81,0-1.38,0-1.4,0-1.4,1.38-.01,3.74,0,7.48,0,11.22,0,1.88.19,1.6-1.6,1.63-.59.01-1.17-.01-1.76-.01-.34,0-.51-.16-.51-.5,0-.29-.02-.59-.02-.88,0-4.95,0-9.9,0-14.85ZM372.73,70.95h0c-2.38,0-4.77,0-7.15,0-.73,0-.79.06-.79.79-.02,2.95-.03,5.9-.02,8.85,0,1.16.03,1.17,1.22,1.17,4.33,0,8.65,0,12.98,0,.71,0,1.43-.05,2.13-.18,1.85-.34,3.35-1.21,4-3.11.42-1.23.44-2.49.11-3.74-.36-1.38-1.16-2.43-2.46-3.07-1.06-.52-2.19-.72-3.36-.72-2.22,0-4.44,0-6.65,0Z"></path>
  <path d="M424.24,99.68c-.72,0-1.33,0-1.95,0-.39,0-.78-.05-1.15,0-.84.13-1.25-.29-1.59-1-1.16-2.37-2.37-4.71-3.55-7.08-.23-.47-.52-.68-1.06-.67-5.5.02-11,.02-16.5,0-.62,0-.91.27-1.16.78-1.19,2.46-2.41,4.9-3.6,7.36-.21.44-.49.63-.98.61-.92-.03-1.83,0-2.75-.03-.65-.02-.7-.1-.43-.67.63-1.34,1.28-2.68,1.94-4.01,2.8-5.73,5.61-11.46,8.42-17.18,1.59-3.24,3.19-6.48,4.76-9.73.26-.55.59-.81,1.22-.76.62.05,1.25.03,1.87,0,.43-.02.66.16.85.54,1.6,3.24,3.21,6.47,4.82,9.7,2.26,4.55,4.52,9.09,6.76,13.64,1.31,2.65,2.6,5.3,3.89,7.95.06.11.09.24.19.53ZM406.81,73.01c-.09.01-.18.03-.27.04-.32.61-.64,1.22-.95,1.84-1.9,3.84-3.79,7.68-5.68,11.53-.36.72-.3.83.48.83,4.27,0,8.54,0,12.8,0,.15,0,.31-.04.65-.09-2.38-4.78-4.71-9.46-7.04-14.14Z"></path>
  <path d="M295.27,48.46c.35-.74.69-1.49,1.05-2.22,3.47-7.09,6.95-14.18,10.42-21.27,1.31-2.68,2.65-5.35,3.95-8.04.22-.46.52-.66,1.02-.64.64.03,1.28.02,1.92,0,.46-.02.74.15.95.58,1.34,2.73,2.7,5.45,4.05,8.17,2.64,5.32,5.27,10.64,7.91,15.96,1.1,2.22,2.2,4.43,3.3,6.65.13.27.22.57.36.93-.4.03-.72.07-1.04.07-.75.01-1.51-.04-2.25.02-.65.05-.99-.23-1.26-.79-1.18-2.4-2.42-4.77-3.6-7.18-.28-.57-.62-.8-1.27-.79-5.43.02-10.85.02-16.28,0-.62,0-.96.21-1.22.77-1.18,2.46-2.41,4.9-3.6,7.36-.21.44-.48.63-.97.62-1.11-.02-2.23,0-3.34,0-.03-.06-.07-.12-.1-.19ZM312.78,21.99l-.2.02c-.11.18-.24.36-.34.55-1.63,3.28-3.26,6.56-4.88,9.84-.51,1.03-1.03,2.07-1.52,3.11-.29.63-.25.68.42.71.66.02,1.32.02,1.98.02,3.63,0,7.26-.01,10.88-.03.19,0,.37-.05.71-.1-2.38-4.78-4.71-9.45-7.04-14.12Z"></path>
  <path d="M225.19,28.48c0-3.59,0-7.19,0-10.78,0-.22.02-.44,0-.66-.04-.53.17-.77.73-.75.86.03,1.72.02,2.58,0,.39,0,.58.17.58.56,0,.33.03.66.03.99,0,6.69-.01,13.38.04,20.08,0,1.23.19,2.49.46,3.69.41,1.8,1.58,3.04,3.36,3.51,1.25.33,2.55.55,3.84.58,1.86.05,3.74-.03,5.59-.2.84-.07,1.68-.39,2.46-.74,1.75-.79,2.48-2.34,2.73-4.12.18-1.32.26-2.66.26-4,.03-6.38.01-12.76.01-19.14q0-1.22,1.2-1.22c.66,0,1.32,0,1.98,0,.7.01.72.04.75.76,0,.07,0,.15,0,.22,0,7.28.01,14.56-.02,21.84,0,1.94-.35,3.84-1.29,5.57-1.24,2.29-3.28,3.53-5.72,4.1-4.32,1-8.66,1.02-12.96-.11-3.69-.96-5.95-3.62-6.41-7.4-.12-1.03-.18-2.08-.2-3.12-.03-1.61,0-3.23,0-4.84,0-1.61,0-3.23,0-4.84Z"></path>
  <path d="M464.68,67.35c1.63,0,3.1-.03,4.55.03.25,0,.52.32.72.54,2.33,2.56,4.65,5.13,6.98,7.7,1.21,1.33,2.42,2.66,3.63,3.98.46.5.54.51.99.01,3.24-3.57,6.48-7.14,9.7-10.73,1.38-1.53,1.36-1.55,3.43-1.55.87,0,1.74,0,2.62,0,.03.06.06.12.09.17-.23.29-.45.59-.7.86-3.37,3.73-6.74,7.45-10.11,11.18-.98,1.09-1.95,2.19-2.96,3.26-.46.49-.64,1-.64,1.67.02,4.58.02,9.17,0,13.75,0,1.68.18,1.43-1.48,1.46-.64.01-1.28-.02-1.93-.01-.35,0-.5-.17-.51-.5,0-.33-.02-.66-.02-.99,0-4.53-.02-9.06.02-13.59,0-.81-.23-1.42-.77-2.01-3.55-3.89-7.07-7.8-10.59-11.7-.88-.98-1.76-1.97-2.63-2.96-.12-.13-.21-.29-.41-.57Z"></path>
  <path d="M263.88,32.44c0-4.99,0-9.98,0-14.96,0-1.18,0-1.18,1.18-1.18.68,0,1.36.02,2.04,0,.51-.02.7.21.67.69-.01.24,0,.48,0,.71,0,8.58,0,17.16,0,25.75,0,1.69-.16,1.56,1.54,1.56,6.12.01,12.25,0,18.37,0q1.29,0,1.29,1.31c0,.61-.01,1.21-.02,1.82,0,.33-.14.51-.5.5-.24,0-.48.01-.71.01-7.52,0-15.04,0-22.56,0-1.42,0-1.31.17-1.32-1.3-.01-4.97,0-9.94,0-14.91Z"></path>
  <path d="M114.47,83.51c0-5.04,0-10.08,0-15.13q0-1.25,1.27-1.25c.7,0,1.39.02,2.09,0,.45,0,.63.19.61.63-.01.24,0,.48,0,.71,0,9.99,0,19.98,0,29.98,0,1.46.17,1.29-1.34,1.32-.7.01-1.39-.01-2.09,0-.37,0-.53-.15-.53-.53,0-.55,0-1.1,0-1.65,0-4.69,0-9.39,0-14.08Z"></path>
  <path d="M60.48,83.44c0,5.08,0,10.15,0,15.23,0,1.1,0,1.1-1.13,1.11-.75,0-1.5-.02-2.25,0-.42,0-.6-.18-.59-.6,0-.26-.01-.51-.01-.77,0-10.01,0-20.01,0-30.02q0-1.25,1.22-1.25c.71,0,1.43.02,2.14,0,.45,0,.63.19.61.63-.02.37,0,.73,0,1.1,0,4.86,0,9.71,0,14.57Z"></path>
  <path d="M130.33,32.39c0-5.04,0-10.08,0-15.12,0-1.11,0-1.12,1.13-1.12.75,0,1.5.02,2.25.01.42,0,.6.18.58.6-.01.24,0,.48,0,.71,0,9.99,0,19.98,0,29.97,0,1.39.15,1.29-1.32,1.31-.7,0-1.39-.02-2.09,0-.4,0-.56-.17-.56-.57,0-.86-.01-1.72-.01-2.58,0-4.4,0-8.8,0-13.2Z"></path>
</svg>